ply
format ascii 1.0
element vertex 24
property float x
property float y
property float z
property float u
property float v
element face 12
property list uchar int vertex_indices
end_header
8.2500 1.2000 0.3870 2.4000 0.7740
8.2500 1.2000 1.2870 2.4000 2.5740
8.2500 1.4000 1.2870 2.8000 2.5740
8.2500 1.4000 0.3870 2.8000 0.7740
9.1500 1.2000 0.3870 2.4000 0.7740
9.1500 1.4000 0.3870 2.8000 0.7740
9.1500 1.4000 1.2870 2.8000 2.5740
9.1500 1.2000 1.2870 2.4000 2.5740
8.2500 1.2000 0.3870 16.5000 0.7740
9.1500 1.2000 0.3870 18.3000 0.7740
9.1500 1.2000 1.2870 18.3000 2.5740
8.2500 1.2000 1.2870 16.5000 2.5740
8.2500 1.4000 0.3870 16.5000 0.7740
8.2500 1.4000 1.2870 16.5000 2.5740
9.1500 1.4000 1.2870 18.3000 2.5740
9.1500 1.4000 0.3870 18.3000 0.7740
8.2500 1.2000 0.3870 16.5000 2.4000
8.2500 1.4000 0.3870 16.5000 2.8000
9.1500 1.4000 0.3870 18.3000 2.8000
9.1500 1.2000 0.3870 18.3000 2.4000
8.2500 1.2000 1.2870 16.5000 2.4000
9.1500 1.2000 1.2870 18.3000 2.4000
9.1500 1.4000 1.2870 18.3000 2.8000
8.2500 1.4000 1.2870 16.5000 2.8000
3 0 1 2
3 0 2 3
3 4 5 6
3 4 6 7
3 8 9 10
3 8 10 11
3 12 13 14
3 12 14 15
3 16 17 18
3 16 18 19
3 20 21 22
3 20 22 23
