ply
format ascii 1.0
element vertex 24
property float x
property float y
property float z
property float u
property float v
element face 12
property list uchar int vertex_indices
end_header
1.0000 1.4000 -1.8130 2.8000 -3.6260
1.0000 1.4000 -1.7130 2.8000 -3.4260
1.0000 5.9000 -1.7130 11.8000 -3.4260
1.0000 5.9000 -1.8130 11.8000 -3.6260
6.0000 1.4000 -1.8130 2.8000 -3.6260
6.0000 5.9000 -1.8130 11.8000 -3.6260
6.0000 5.9000 -1.7130 11.8000 -3.4260
6.0000 1.4000 -1.7130 2.8000 -3.4260
1.0000 1.4000 -1.8130 2.0000 -3.6260
6.0000 1.4000 -1.8130 12.0000 -3.6260
6.0000 1.4000 -1.7130 12.0000 -3.4260
1.0000 1.4000 -1.7130 2.0000 -3.4260
1.0000 5.9000 -1.8130 2.0000 -3.6260
1.0000 5.9000 -1.7130 2.0000 -3.4260
6.0000 5.9000 -1.7130 12.0000 -3.4260
6.0000 5.9000 -1.8130 12.0000 -3.6260
1.0000 1.4000 -1.8130 2.0000 2.8000
1.0000 5.9000 -1.8130 2.0000 11.8000
6.0000 5.9000 -1.8130 12.0000 11.8000
6.0000 1.4000 -1.8130 12.0000 2.8000
1.0000 1.4000 -1.7130 2.0000 2.8000
6.0000 1.4000 -1.7130 12.0000 2.8000
6.0000 5.9000 -1.7130 12.0000 11.8000
1.0000 5.9000 -1.7130 2.0000 11.8000
3 0 1 2
3 0 2 3
3 4 5 6
3 4 6 7
3 8 9 10
3 8 10 11
3 12 13 14
3 12 14 15
3 16 17 18
3 16 18 19
3 20 21 22
3 20 22 23
