ply
format ascii 1.0
element vertex 24
property float x
property float y
property float z
property float u
property float v
element face 12
property list uchar int vertex_indices
end_header
28.0000 4.0000 -1.7130 8.0000 -3.4260
28.0000 4.0000 1.2870 8.0000 2.5740
28.0000 4.2000 1.2870 8.4000 2.5740
28.0000 4.2000 -1.7130 8.4000 -3.4260
38.0000 4.0000 -1.7130 8.0000 -3.4260
38.0000 4.2000 -1.7130 8.4000 -3.4260
38.0000 4.2000 1.2870 8.4000 2.5740
38.0000 4.0000 1.2870 8.0000 2.5740
28.0000 4.0000 -1.7130 56.0000 -3.4260
38.0000 4.0000 -1.7130 76.0000 -3.4260
38.0000 4.0000 1.2870 76.0000 2.5740
28.0000 4.0000 1.2870 56.0000 2.5740
28.0000 4.2000 -1.7130 56.0000 -3.4260
28.0000 4.2000 1.2870 56.0000 2.5740
38.0000 4.2000 1.2870 76.0000 2.5740
38.0000 4.2000 -1.7130 76.0000 -3.4260
28.0000 4.0000 -1.7130 56.0000 8.0000
28.0000 4.2000 -1.7130 56.0000 8.4000
38.0000 4.2000 -1.7130 76.0000 8.4000
38.0000 4.0000 -1.7130 76.0000 8.0000
28.0000 4.0000 1.2870 56.0000 8.0000
38.0000 4.0000 1.2870 76.0000 8.0000
38.0000 4.2000 1.2870 76.0000 8.4000
28.0000 4.2000 1.2870 56.0000 8.4000
3 0 1 2
3 0 2 3
3 4 5 6
3 4 6 7
3 8 9 10
3 8 10 11
3 12 13 14
3 12 14 15
3 16 17 18
3 16 18 19
3 20 21 22
3 20 22 23
